<svg xmlns:xlink="http://www.w3.org/1999/xlink" xmlns="http://www.w3.org/2000/svg" style="width:100%;height:100%" viewBox="0 0 40 48" preserveAspectRatio="none" width="40" height="48"><defs><svg fill="none" height="48" width="40" id="svg-1124157289_1196"><g clip-rule="evenodd" fill-rule="evenodd" fill="none"><path d="M34.587 8.4 24.9 5.806c-.669-.18-1.21.237-1.21.93v10.028c0 .692.541 1.398 1.21 1.578l9.687 2.595c.668.18 1.21-.237 1.21-.929V9.98c0-.693-.541-1.4-1.21-1.578zM24.9 2.045c-2.675-.716-4.843.948-4.843 3.717V15.79c0 2.77 2.168 5.596 4.843 6.312l9.687 2.596c2.675.717 4.843-.947 4.843-3.717V10.952c0-2.77-2.168-5.595-4.843-6.312z" fill="#8098F9"></path><path d="m26.981 16.57-12.108-3.244c-.669-.179-1.211.237-1.211.93V26.79c0 .692.542 1.399 1.21 1.578l12.11 3.244c.668.18 1.21-.236 1.21-.929V18.15c0-.693-.542-1.4-1.21-1.578zM14.873 9.567c-2.675-.717-4.844.947-4.844 3.716v12.536c0 2.769 2.169 5.595 4.844 6.312l12.108 3.244c2.675.717 4.843-.947 4.843-3.716V19.122c0-2.77-2.168-5.595-4.843-6.312z" fill="#6172F3"></path><path d="m19.374 24.74-14.53-3.892c-.67-.18-1.211.236-1.211.929v15.042c0 .693.542 1.4 1.21 1.578l14.53 3.894c.67.179 1.211-.237 1.211-.93V26.32c0-.692-.542-1.399-1.21-1.578zm-14.53-7.653C2.167 16.37 0 18.034 0 20.803v15.043c0 2.77 2.168 5.595 4.843 6.312l14.53 3.893c2.675.717 4.844-.947 4.844-3.716V27.292c0-2.77-2.168-5.595-4.843-6.312z" fill="#444CE7"></path></g></svg></defs><use href="#svg-1124157289_1196"></use></svg>