<svg xmlns:xlink="http://www.w3.org/1999/xlink" xmlns="http://www.w3.org/2000/svg" style="width:100%;height:100%" viewBox="0 0 40 48" preserveAspectRatio="none" width="40" height="48"><defs><svg fill="none" height="48" width="40" id="svg1858654229_626"><path d="M20 4C8.954 4 0 12.954 0 24s8.954 20 20 20c9.91 0 18.137-7.208 19.724-16.667h-.144c-1.48 5.751-6.7 10-12.913 10-7.364 0-13.334-5.97-13.334-13.333 0-7.364 5.97-13.333 13.334-13.333 6.213 0 11.433 4.249 12.913 10h.144C38.137 11.207 29.91 4 20 4z" fill="#A4BCFD"></path><path d="M0 24C0 12.954 8.954 4 20 4c9.91 0 18.137 7.208 19.724 16.667H26.247c-1.48-5.751-6.7-10-12.914-10C5.97 10.667 0 16.637 0 24zm0 0c0 11.046 8.954 20 20 20 9.91 0 18.137-7.207 19.724-16.666H26.247c-1.48 5.75-6.7 10-12.914 10C5.97 37.334 0 31.364 0 24z" fill="#3538CD"></path></svg></defs><use href="#svg1858654229_626"></use></svg>