<svg xmlns:xlink="http://www.w3.org/1999/xlink" xmlns="http://www.w3.org/2000/svg" style="width:100%;height:100%" viewBox="0 0 40 48" preserveAspectRatio="none" width="40" height="48"><defs><svg fill="none" height="48" width="40" id="svg-1409060999_877"><path d="M28.645 39.168c-.604 1.34-1.353 2.653-2.252 3.789C33.85 40.443 39.34 33.65 39.945 25.5H37.29c-3.24 0-5.842 2.586-6.368 5.783-.486 2.947-1.263 5.63-2.277 7.885zM22.772 25.5c3.393 0 6.167 2.83 5.544 6.164C26.963 38.907 23.75 44 20.001 44c-4.744 0-8.63-8.155-8.975-18.5zm8.218-8.35c.497 3.227 3.111 5.85 6.376 5.85h2.61c-.412-8.373-5.973-15.392-13.583-17.957.899 1.136 1.648 2.449 2.252 3.789 1.064 2.365 1.866 5.201 2.345 8.318zm-2.574-.254c.568 3.317-2.195 6.104-5.56 6.104H11.011C11.246 12.419 15.182 4 20 4c3.844 0 7.126 5.357 8.415 12.896zM8.511 23c.114-5.408 1.146-10.39 2.846-14.168.603-1.34 1.353-2.653 2.252-3.789C5.999 7.608.438 14.627.025 23zM.056 25.5c.605 8.151 6.095 14.943 13.553 17.457-.899-1.136-1.649-2.449-2.252-3.789C9.71 35.506 8.69 30.715 8.524 25.5z" fill="#5925DC"></path></svg></defs><use href="#svg-1409060999_877"></use></svg>