<svg xmlns:xlink="http://www.w3.org/1999/xlink" xmlns="http://www.w3.org/2000/svg" style="width:100%;height:100%" viewBox="0 0 40 48" preserveAspectRatio="none" width="40" height="48"><defs><svg fill="none" height="48" width="40" id="svg1305776292_478"><path d="M29.541 6.418c2.691 5.277 4.21 11.252 4.21 17.582s-1.519 12.305-4.21 17.582c6.23-3.388 10.46-9.991 10.46-17.582S35.77 9.806 29.54 6.418z" fill="#6172F3"></path><path d="M20.548 5.998c-.905-1.281-2.446-1.971-3.991-1.703C7.152 5.927 0 14.128 0 24c0 9.872 7.152 18.073 16.557 19.705 1.545.268 3.086-.422 3.991-1.704A31.108 31.108 0 0 0 26.251 24c0-6.703-2.11-12.913-5.703-18.002z" fill="#444CE7"></path></svg></defs><use href="#svg1305776292_478"></use></svg>