<svg xmlns:xlink="http://www.w3.org/1999/xlink" xmlns="http://www.w3.org/2000/svg" style="width:100%;height:100%" viewBox="0 0 40 48" preserveAspectRatio="none" width="40" height="48"><defs><svg fill="none" height="48" width="40" id="svg945769326_618"><g fill="#6938EF"><path d="M9.725 41.798H28.22a3.56 3.56 0 0 0 3.083-1.78l4.11-7.119H14.865z" opacity=".7" fill="#6938EF"></path><path d="M25.145 15.101H4.588l4.11-7.119a3.56 3.56 0 0 1 3.083-1.78h18.496zM39.527 25.78a3.56 3.56 0 0 0 0-3.56l-4.11-7.119-5.138 8.9H9.73l5.137 8.898h20.548l.001-.003.002.003z" opacity=".4" fill="#6938EF"></path><path d="M14.863 32.9 9.726 24l-5.138 8.9 5.138 8.898z" fill="#6938EF"></path><path d="M25.145 15.101H4.588L.48 22.221a3.56 3.56 0 0 0 0 3.559l4.112 7.12L9.73 24h20.55l.001-.002z" opacity=".7" fill="#6938EF"></path><path d="M35.418 15.101 30.28 6.204 25.143 15.1 30.28 24z" fill="#6938EF"></path></g></svg></defs><use href="#svg945769326_618"></use></svg>