<svg xmlns:xlink="http://www.w3.org/1999/xlink" xmlns="http://www.w3.org/2000/svg" style="width:100%;height:100%" viewBox="0 0 40 48" preserveAspectRatio="none" width="40" height="48"><defs><svg fill="none" height="48" width="40" id="svg78179589_498"><g fill="#6938EF"><path d="M5.037 15.464c.751-2.801 3.63-5.68 6.43-6.43l17.463-4.68c2.8-.75 4.463.911 3.712 3.712l-4.68 17.462c-.75 2.8-3.63 5.68-6.43 6.43L4.07 36.638c-2.8.75-4.463-.912-3.712-3.713z" opacity=".7" fill="#6938EF"></path><path d="M12.036 22.464c.75-2.8 3.63-5.68 6.43-6.43l17.462-4.68c2.8-.75 4.463.912 3.712 3.713l-4.68 17.461c-.75 2.801-3.63 5.68-6.43 6.43l-17.462 4.68c-2.8.75-4.463-.911-3.712-3.712z" opacity=".7" fill="#6938EF"></path></g></svg></defs><use href="#svg78179589_498"></use></svg>