<svg xmlns:xlink="http://www.w3.org/1999/xlink" xmlns="http://www.w3.org/2000/svg" style="width:100%;height:100%" viewBox="0 0 38 48" preserveAspectRatio="none" width="38" height="48"><defs><svg fill="none" height="48" width="38" id="svg14968707_1055"><path clip-rule="evenodd" d="M19.742 4.076a3.672 3.672 0 0 0-1.484 0c-.567.116-1.072.4-1.475.625l-.11.06-13.632 7.575-.117.064c-.426.235-.96.53-1.372.976a3.686 3.686 0 0 0-.79 1.34c-.19.577-.187 1.188-.185 1.674v15.22c-.002.486-.004 1.097.186 1.673.164.498.433.956.789 1.341.411.446.946.741 1.372.976l.117.064 13.633 7.574.11.061c.402.226.907.509 1.474.625.49.101.994.101 1.484 0 .566-.116 1.072-.4 1.474-.625l.11-.06 13.633-7.575.05-.028.066-.036c.426-.235.961-.53 1.373-.976.355-.385.624-.843.789-1.34.19-.577.188-1.188.186-1.674V16.39c.002-.486.004-1.097-.186-1.673a3.686 3.686 0 0 0-.79-1.341c-.41-.447-.946-.741-1.372-.976h-.001l-.115-.064-13.633-7.574-.11-.061c-.402-.226-.908-.509-1.474-.625zm-1.279 3.907c.28-.155.422-.234.528-.285L19 7.694l.009.004c.106.051.248.13.528.285l12.25 6.806L19 21.892 6.213 14.788zM4.261 17.92l12.896 7.164v14.208L4.83 32.443a12.264 12.264 0 0 1-.55-.315l-.01-.006v-.01a12.217 12.217 0 0 1-.009-.635z" fill="#0A0D12" fill-rule="evenodd"></path></svg></defs><use href="#svg14968707_1055"></use></svg>