<svg xmlns:xlink="http://www.w3.org/1999/xlink" xmlns="http://www.w3.org/2000/svg" style="width:100%;height:100%" viewBox="0 0 40 48" preserveAspectRatio="none" width="40" height="48"><defs><svg fill="none" height="48" width="40" id="svg1395707888_1921"><path clip-rule="evenodd" d="M20 41.136c1.87 0 3.669-.299 5.353-.852-1.718-.29-3.527-.872-5.352-1.73-1.825.858-3.635 1.441-5.353 1.73 1.684.553 3.483.852 5.352.852zM3.717 29.356c.29-1.718.872-3.53 1.73-5.355-.858-1.826-1.441-3.636-1.73-5.355A17.12 17.12 0 0 0 2.864 24c0 1.87.3 3.67.853 5.356zm3.604-2.01c-.16.468-.296.93-.41 1.382-.887 3.551-.236 5.988 1.07 7.293 1.305 1.306 3.742 1.957 7.293 1.069.452-.113.914-.25 1.382-.41a32.248 32.248 0 0 1-5.14-4.195 32.248 32.248 0 0 1-4.195-5.139zm12.68 7.845c-2.143-1.173-4.324-2.786-6.365-4.827-2.04-2.04-3.653-4.22-4.825-6.363 1.172-2.143 2.786-4.324 4.826-6.364 2.04-2.04 4.222-3.654 6.364-4.827 2.143 1.173 4.323 2.786 6.363 4.826 2.041 2.04 3.655 4.222 4.827 6.365-1.172 2.143-2.785 4.323-4.826 6.363-2.04 2.04-4.221 3.655-6.364 4.827zm12.68-7.845a32.245 32.245 0 0 1-4.194 5.14 32.247 32.247 0 0 1-5.14 4.194c.468.16.929.297 1.381.41 3.551.887 5.988.236 7.293-1.07 1.306-1.304 1.957-3.741 1.069-7.292-.113-.452-.25-.914-.41-1.382zm1.874-3.345c.858-1.824 1.44-3.634 1.73-5.351a17.12 17.12 0 0 1 .851 5.35c0 1.869-.299 3.668-.852 5.352-.29-1.717-.872-3.526-1.729-5.35zm-9.2-16.284c-1.718.289-3.529.872-5.354 1.73-1.825-.858-3.636-1.442-5.354-1.73A17.12 17.12 0 0 1 20 6.863c1.87 0 3.67.3 5.354.853zm8.703 2.057A19.936 19.936 0 0 0 20 4C8.954 4 0 12.954 0 24s8.954 20 20 20a19.936 19.936 0 0 0 14.211-5.927A19.937 19.937 0 0 0 40 24a19.936 19.936 0 0 0-5.942-14.226zm-17.402 1.547c-.468-.16-.93-.297-1.383-.41-3.551-.888-5.988-.237-7.293 1.068s-1.957 3.743-1.07 7.294c.114.452.25.914.411 1.383a32.245 32.245 0 0 1 4.195-5.14 32.243 32.243 0 0 1 5.14-4.195zm16.025 9.335a32.253 32.253 0 0 0-4.195-5.141 32.25 32.25 0 0 0-5.14-4.194c.469-.16.93-.297 1.383-.41 3.55-.888 5.988-.237 7.293 1.069 1.305 1.305 1.957 3.742 1.069 7.293-.113.453-.25.914-.41 1.383z" fill="#6927DA" fill-rule="evenodd"></path></svg></defs><use href="#svg1395707888_1921"></use></svg>