<svg xmlns:xlink="http://www.w3.org/1999/xlink" xmlns="http://www.w3.org/2000/svg" style="width:100%;height:100%" viewBox="0 0 152 48" preserveAspectRatio="none" width="152" height="48"><defs><svg fill="none" height="48" width="152" id="svg-1421949427_2957"><path d="M20 4C8.954 4 0 12.954 0 24s8.954 20 20 20c9.91 0 18.137-7.208 19.724-16.667h-.144c-1.48 5.751-6.7 10-12.913 10-7.364 0-13.334-5.97-13.334-13.333 0-7.364 5.97-13.333 13.334-13.333 6.213 0 11.433 4.249 12.913 10h.144C38.137 11.207 29.91 4 20 4z" fill="#A4BCFD"></path><path d="M0 24C0 12.954 8.954 4 20 4c9.91 0 18.137 7.208 19.724 16.667H26.247c-1.48-5.751-6.7-10-12.914-10C5.97 10.667 0 16.637 0 24zm0 0c0 11.046 8.954 20 20 20 9.91 0 18.137-7.207 19.724-16.666H26.247c-1.48 5.75-6.7 10-12.914 10C5.97 37.334 0 31.364 0 24z" fill="#3538CD"></path><path d="M65.817 20.702h3.933l-.018-.115c-.647-4.236-4.817-7.277-9.524-7.277-5.857 0-10.308 4.541-10.308 10.51 0 5.999 4.45 10.57 10.308 10.57 4.829 0 8.76-3.075 9.582-7.535l.022-.118h-3.969l-.019.076c-.596 2.414-2.9 4.07-5.616 4.07-3.737 0-6.599-3.051-6.599-7.062 0-3.982 2.861-7.005 6.6-7.005 2.688 0 4.935 1.572 5.587 3.814zM86.375 34.1V19.719h-3.448v2.292c-1.054-1.64-2.755-2.582-4.946-2.582-3.862 0-6.886 3.33-6.886 7.466 0 4.135 3.023 7.495 6.886 7.495 2.19 0 3.892-.943 4.946-2.583V34.1zm-7.698-2.984c-2.351 0-4.192-1.868-4.192-4.221a4.164 4.164 0 0 1 4.192-4.192c2.41 0 4.22 1.812 4.22 4.192 0 2.41-1.81 4.22-4.22 4.22zm15.101-2.51v-5.613h3.712v-3.274h-3.71v-3.8h-3.45v3.8h-2.696v3.274h2.696v5.67c0 1.818.528 3.223 1.465 4.174s2.269 1.437 3.856 1.437c.526 0 1.26-.058 1.762-.177l.078-.018v-3.197l-.127.034a4.02 4.02 0 0 1-1.017.113c-.77 0-1.41-.178-1.856-.563-.444-.383-.712-.982-.712-1.86zm19.275 5.494V19.719h-3.448v2.292c-1.053-1.64-2.755-2.582-4.946-2.582-3.862 0-6.886 3.33-6.886 7.466 0 4.135 3.024 7.495 6.886 7.495 2.191 0 3.893-.943 4.946-2.583V34.1zm-7.698-2.984c-2.35 0-4.192-1.868-4.192-4.221a4.164 4.164 0 0 1 4.192-4.192c2.411 0 4.221 1.812 4.221 4.192 0 2.41-1.811 4.22-4.221 4.22zm13.739 2.984V13.6h-3.419v20.5zm21.633.554h-3.418l.004.104c.089 2.028 1.18 3.346 2.603 4.154 1.419.805 3.17 1.104 4.602 1.104 2.079 0 3.908-.622 5.22-1.754 1.314-1.132 2.101-2.77 2.101-4.784v-.8h.029v-12.96h-3.448v2.216c-1.054-1.589-2.756-2.505-4.946-2.505-3.859 0-6.886 3.24-6.886 7.263 0 4.022 3.026 7.292 6.886 7.292 2.19 0 3.892-.916 4.946-2.53l-.029 2.14c0 2.106-1.768 3.525-3.96 3.525-1.002 0-1.91-.222-2.576-.63-.663-.408-1.082-.997-1.123-1.74zm3.443-3.857c-2.353 0-4.192-1.842-4.192-4.105 0-2.263 1.838-4.076 4.192-4.076 2.413 0 4.221 1.756 4.221 4.076 0 2.32-1.809 4.105-4.221 4.105zm-8.95-11.233.048-.134h-3.738l-.03.04a4.104 4.104 0 0 1-3.291 1.617c-1.366 0-2.543-.626-3.282-1.617l-.03-.04h-3.722l.048.134c1.029 2.866 3.715 4.826 6.986 4.826 3.27 0 5.973-1.96 7.011-4.826zm-3.13 14.826h3.45l.015-.083c.079-.446.12-.909.12-1.383 0-4.26-3.264-7.495-7.466-7.495-4.203 0-7.437 3.235-7.437 7.495 0 .474.04.937.119 1.383l.014.083h3.444l-.041-.13a4.384 4.384 0 0 1-.204-1.336c0-2.384 1.785-4.221 4.105-4.221 2.292 0 4.134 1.839 4.134 4.22 0 .471-.074.92-.21 1.336z" clip-rule="evenodd" fill="#0A0D12" fill-rule="evenodd"></path></svg></defs><use href="#svg-1421949427_2957"></use></svg>