<svg xmlns:xlink="http://www.w3.org/1999/xlink" xmlns="http://www.w3.org/2000/svg" style="width:100%;height:100%" viewBox="0 0 142 48" preserveAspectRatio="none" width="142" height="48"><defs><svg fill="none" height="48" width="142" id="svg-1677000069_3145"><path d="M28.645 39.168c-.604 1.34-1.353 2.653-2.252 3.789C33.85 40.443 39.34 33.65 39.945 25.5H37.29c-3.24 0-5.842 2.586-6.368 5.783-.486 2.947-1.263 5.63-2.277 7.885zM22.772 25.5c3.393 0 6.167 2.83 5.544 6.164C26.963 38.907 23.75 44 20.001 44c-4.744 0-8.63-8.155-8.975-18.5zm8.218-8.35c.497 3.227 3.111 5.85 6.376 5.85h2.61c-.412-8.373-5.973-15.392-13.583-17.957.899 1.136 1.648 2.449 2.252 3.789 1.064 2.365 1.866 5.201 2.345 8.318zm-2.574-.254c.568 3.317-2.195 6.104-5.56 6.104H11.011C11.246 12.419 15.182 4 20 4c3.844 0 7.126 5.357 8.415 12.896zM8.511 23c.114-5.408 1.146-10.39 2.846-14.168.603-1.34 1.353-2.653 2.252-3.789C5.999 7.608.438 14.627.025 23zM.056 25.5c.605 8.151 6.095 14.943 13.553 17.457-.899-1.136-1.649-2.449-2.252-3.789C9.71 35.506 8.69 30.715 8.524 25.5z" fill="#5925DC"></path><path d="M50 33V13.317h14.985v3.753H54.428v4.185h9.18v3.51h-9.18v4.482h10.557V33zm22.395.27c-1.602 0-2.8-.522-3.591-1.566-.792-1.062-1.188-2.457-1.188-4.185V18.5h4.13v8.424c0 1.152.226 1.944.676 2.376.468.414 1.089.62 1.863.62.918 0 1.61-.305 2.079-.917s.702-1.413.702-2.403v-8.1h4.13V33h-3.86l-.297-2.376h-.216c-.324.792-.882 1.43-1.674 1.917-.774.486-1.692.729-2.754.729zM84.296 33V18.5h3.861l.298 2.404h.242c.324-.9.756-1.557 1.296-1.971.54-.432 1.315-.648 2.323-.648h1.295v4.212H91.75c-1.188 0-2.034.306-2.538.918-.504.594-.756 1.395-.756 2.403V33zm17.268.27c-2.358 0-4.113-.675-5.265-2.025s-1.728-3.15-1.728-5.4v-.081c0-2.556.64-4.446 1.917-5.67 1.278-1.242 2.97-1.863 5.076-1.863 2.124 0 3.825.62 5.103 1.863 1.296 1.224 1.944 3.114 1.944 5.67v.08c-.018 2.25-.603 4.05-1.755 5.4s-2.916 2.026-5.292 2.026zm0-3.348c.918 0 1.611-.252 2.079-.756.486-.504.729-1.197.729-2.08v-2.591c0-.9-.252-1.602-.756-2.106-.486-.522-1.17-.783-2.052-.783-.864 0-1.548.26-2.052.783-.486.504-.729 1.206-.729 2.106v2.592c0 .882.234 1.575.702 2.079.486.504 1.179.756 2.079.756zm9.312 7.587V18.5h3.942l.216 2.133h.189a3.85 3.85 0 0 1 1.674-1.755c.774-.432 1.638-.648 2.592-.648 1.944 0 3.357.657 4.239 1.97s1.323 3.07 1.323 5.266v.62c0 2.503-.504 4.33-1.512 5.482-.99 1.134-2.34 1.7-4.05 1.7-.936 0-1.791-.206-2.565-.62-.774-.432-1.341-1.026-1.701-1.782h-.189v6.642zm6.939-7.614c.9 0 1.593-.252 2.079-.756s.729-1.215.729-2.133v-2.484c0-.918-.243-1.63-.729-2.133-.486-.522-1.179-.783-2.079-.783-.846 0-1.521.26-2.025.783-.486.522-.729 1.25-.729 2.187v2.376c0 .936.243 1.665.729 2.187.504.504 1.179.756 2.025.756zm13.038 3.375c-1.332 0-2.412-.351-3.24-1.053-.828-.72-1.242-1.674-1.242-2.862V29.3c0-1.386.441-2.457 1.323-3.213s2.07-1.224 3.564-1.404l4.05-.54v-.567c0-1.368-.828-2.052-2.484-2.052-.792 0-1.422.153-1.89.459-.45.306-.675.747-.675 1.323h-3.753c0-1.602.585-2.844 1.755-3.726 1.17-.9 2.817-1.35 4.941-1.35 1.944 0 3.465.414 4.563 1.242 1.116.828 1.674 2.142 1.674 3.942v6.669h1.89V33h-4.968l-.324-2.241h-.297c-.36.792-.963 1.413-1.809 1.863-.828.432-1.854.648-3.078.648zm1.782-2.97c.72 0 1.323-.171 1.809-.513.504-.36.792-.82.864-1.377v-1.944l-2.727.405c-.612.072-1.107.234-1.485.486-.378.234-.567.594-.567 1.08v.35c0 .45.18.82.54 1.108.378.27.9.405 1.566.405z" fill="#0A0D12"></path></svg></defs><use href="#svg-1677000069_3145"></use></svg>