<svg xmlns:xlink="http://www.w3.org/1999/xlink" xmlns="http://www.w3.org/2000/svg" viewBox="0 0 256 256" focusable="false" color="var(--token-bd6fddaa-3751-40c0-9f12-5c406a835432, rgb(0, 0, 0))" style="user-select: none; width: 100%; height: 100%; display: inline-block; fill: var(--token-bd6fddaa-3751-40c0-9f12-5c406a835432, rgb(0, 0, 0)); color: var(--token-bd6fddaa-3751-40c0-9f12-5c406a835432, rgb(0, 0, 0)); flex-shrink: 0;" width="256"  height="256" ><g color="var(--token-bd6fddaa-3751-40c0-9f12-5c406a835432, rgb(0, 0, 0))" weight="regular"><path d="M128,24A104,104,0,1,0,232,128,104.11,104.11,0,0,0,128,24Zm8,191.63V152h24a8,8,0,0,0,0-16H136V112a16,16,0,0,1,16-16h16a8,8,0,0,0,0-16H152a32,32,0,0,0-32,32v24H96a8,8,0,0,0,0,16h24v63.63a88,88,0,1,1,16,0Z"></path></g></svg>