<svg xmlns:xlink="http://www.w3.org/1999/xlink" xmlns="http://www.w3.org/2000/svg" style="width:100%;height:100%" viewBox="0 0 135 48" preserveAspectRatio="none" width="135" height="48"><defs><svg fill="none" height="48" width="135" id="svg1653999624_2372"><path d="M29.541 6.418c2.691 5.277 4.21 11.252 4.21 17.582s-1.519 12.305-4.21 17.582c6.23-3.388 10.46-9.991 10.46-17.582S35.77 9.806 29.54 6.418z" fill="#6172F3"></path><path d="M20.548 5.998c-.905-1.281-2.446-1.971-3.991-1.703C7.152 5.927 0 14.128 0 24c0 9.872 7.152 18.073 16.557 19.705 1.545.268 3.086-.422 3.991-1.704A31.108 31.108 0 0 0 26.251 24c0-6.703-2.11-12.913-5.703-18.002z" fill="#444CE7"></path><path d="M50 25.988V21.67c.934-4.932 5.051-8.461 10.238-8.461 4.627 0 8.843 3.151 9.62 6.829l.051.241h-4.213l-.048-.13c-.717-1.902-3.033-3.234-5.41-3.234-3.707 0-6.528 2.974-6.528 6.905 0 3.957 2.818 6.963 6.76 6.963 3.009 0 5.317-1.91 5.932-4.675h-7.306v-3.677H70.12l.029.165c.09.508.148 1.332.148 1.949 0 5.828-4.357 9.944-10.06 9.944-5.211 0-9.307-3.55-10.238-8.502zm25.084-1.184h-3.306l.018-.216c.241-2.956 2.89-5.259 6.028-5.259 2.011 0 3.581.585 4.65 1.626 1.068 1.043 1.612 2.52 1.612 4.258V34.2H80.64v-1.41c-1.008 1.107-2.395 1.7-4.121 1.7-2.849 0-4.84-1.871-4.84-4.376 0-1.56.693-2.832 1.933-3.705 1.233-.869 2.997-1.338 5.14-1.338h1.888v-.061c0-.807-.28-1.463-.76-1.917-.483-.456-1.184-.725-2.056-.725-1.488 0-2.65.929-2.73 2.248zm.405 6.25c.367.298.906.484 1.581.484 2.13 0 3.57-1.599 3.57-3.251v-.409h-1.974c-1.25 0-2.197.173-2.824.51-.311.166-.54.37-.69.608-.15.238-.23.52-.23.857 0 .49.204.905.567 1.2zM89.854 13.5v20.7h-3.62V13.5zm2.428 6.119H95.9V34.2h-3.62zm9.836-6.119v20.7h-3.62V13.5zM118.1 27.878h-11.058c.171 1.017.621 1.855 1.277 2.45.703.638 1.654 1.007 2.784 1.007 1.776 0 3.051-.841 3.313-2.046l.034-.158h3.587l-.038.232c-.513 3.136-3.344 5.127-6.867 5.127-4.259 0-7.566-3.31-7.566-7.624 0-4.257 3.308-7.537 7.508-7.537 3.937 0 7.102 3.075 7.102 7.131 0 .297-.03.912-.059 1.236zm-10.849-2.749h7.074c-.26-1.545-1.628-2.674-3.396-2.674-.933 0-1.744.264-2.383.756-.581.448-1.029 1.09-1.295 1.918zm-15.404-9.805c0-1.238 1.014-2.288 2.259-2.288a2.298 2.298 0 0 1 2.288 2.288c0 1.212-1.018 2.259-2.288 2.259-1.244 0-2.26-1.048-2.26-2.259zm34.621 4.005c4.257 0 7.566 3.28 7.566 7.595 0 4.287-3.309 7.566-7.566 7.566-4.258 0-7.537-3.28-7.537-7.566 0-4.314 3.278-7.595 7.537-7.595zm-4.005 7.595c0 2.3 1.74 4.063 4.005 4.063 2.238 0 4.034-1.766 4.034-4.063 0-2.328-1.798-4.121-4.034-4.121-2.263 0-4.005 1.79-4.005 4.121z" clip-rule="evenodd" fill="#0A0D12" fill-rule="evenodd"></path></svg></defs><use href="#svg1653999624_2372"></use></svg>