<svg xmlns:xlink="http://www.w3.org/1999/xlink" xmlns="http://www.w3.org/2000/svg" style="width:100%;height:100%" viewBox="0 0 176 48" preserveAspectRatio="none" width="176" height="48"><defs><svg fill="none" height="48" width="176" id="svg476319983_3511"><path d="M9.725 41.798H28.22a3.56 3.56 0 0 0 3.083-1.78l4.11-7.119H14.865z" fill="#6938EF" opacity=".7"></path><path d="M25.145 15.101H4.588l4.11-7.119a3.56 3.56 0 0 1 3.083-1.78h18.496zM39.527 25.78a3.56 3.56 0 0 0 0-3.56l-4.11-7.119-5.138 8.9H9.73l5.137 8.898h20.548l.001-.003.002.003z" fill="#6938EF" opacity=".4"></path><path d="M14.863 32.9 9.726 24l-5.138 8.9 5.138 8.898z" fill="#6938EF"></path><path d="M25.145 15.101H4.588L.48 22.221a3.56 3.56 0 0 0 0 3.559l4.112 7.12L9.73 24h20.55l.001-.002z" fill="#6938EF" opacity=".7"></path><path d="M35.418 15.101 30.28 6.204 25.143 15.1 30.28 24z" fill="#6938EF"></path><g fill="#0A0D12"><path d="M50 33V12.588h4.368v8.204h9.604v-8.204h4.368V33h-4.368v-8.484h-9.604V33zm28.295.252c-1.568 0-2.912-.317-4.032-.952a6.48 6.48 0 0 1-2.548-2.66c-.598-1.157-.896-2.501-.896-4.032 0-1.624.298-3.024.896-4.2.616-1.176 1.474-2.081 2.576-2.716 1.101-.653 2.389-.98 3.864-.98 1.736 0 3.164.383 4.284 1.148 1.12.747 1.922 1.783 2.408 3.108.485 1.307.644 2.79.476 4.452H74.879c-.019 1.195.289 2.119.924 2.772.634.635 1.465.952 2.492.952.784 0 1.446-.168 1.988-.504.56-.355.914-.821 1.064-1.4h3.892a4.959 4.959 0 0 1-1.148 2.632c-.616.747-1.419 1.335-2.408 1.764-.99.41-2.119.616-3.388.616zm-.14-12.432c-.934 0-1.69.27-2.268.812-.579.523-.906 1.241-.98 2.156h6.384c-.056-1.008-.383-1.755-.98-2.24-.579-.485-1.298-.728-2.156-.728z" fill="#0A0D12"></path><path d="m84.673 33 5.628-7.7-5.124-7.308h4.9l2.996 4.508h.168l2.968-4.508h4.676l-4.984 7.196L101.417 33h-4.844l-3.472-5.096h-.168L89.293 33zm23.496.28c-2.184 0-3.873-.457-5.068-1.372-1.176-.933-1.754-2.147-1.736-3.64h4.032c.019.803.299 1.381.84 1.736.56.336 1.242.504 2.044.504.84 0 1.475-.14 1.904-.42.43-.299.644-.7.644-1.204 0-.69-.252-1.139-.756-1.344-.485-.205-1.26-.383-2.324-.532a19.133 19.133 0 0 1-3.024-.644c-.914-.299-1.642-.747-2.184-1.344-.522-.597-.784-1.447-.784-2.548 0-1.587.598-2.772 1.792-3.556 1.214-.803 2.8-1.204 4.76-1.204 1.923 0 3.454.42 4.592 1.26 1.139.821 1.727 1.979 1.764 3.472h-4.032c0-.635-.224-1.12-.672-1.456-.429-.336-1.017-.504-1.764-.504-.765 0-1.344.15-1.736.448-.392.28-.588.653-.588 1.12 0 .56.252.952.756 1.176s1.307.41 2.408.56c.784.112 1.531.252 2.24.42.71.15 1.335.392 1.876.728.56.317.999.765 1.316 1.344.336.56.504 1.297.504 2.212 0 1.643-.606 2.856-1.82 3.64-1.213.765-2.874 1.148-4.984 1.148zm9.006-.28V17.992h3.976l.14 2.716h.168c.374-.99.98-1.736 1.82-2.24s1.764-.756 2.772-.756c1.046 0 1.998.252 2.856.756.859.504 1.494 1.372 1.904 2.604h.224c.355-1.12.98-1.96 1.876-2.52.915-.56 1.942-.84 3.08-.84.971 0 1.839.205 2.604.616.766.41 1.372 1.073 1.82 1.988.467.896.7 2.1.7 3.612V33h-4.116v-8.176c0-1.27-.214-2.212-.644-2.828-.41-.616-1.082-.924-2.016-.924-.989 0-1.764.364-2.324 1.092-.541.71-.812 1.54-.812 2.492V33h-4.116v-8.176c0-1.27-.214-2.212-.644-2.828-.41-.616-1.082-.924-2.016-.924-1.008 0-1.782.364-2.324 1.092-.541.71-.812 1.54-.812 2.492V33zm26.757-16.94v-3.05l4.116-.422v3.472zm0 16.94V17.992h4.116V33zm12.052 0c-1.008 0-1.792-.15-2.352-.448s-.952-.719-1.176-1.26c-.205-.56-.308-1.213-.308-1.96v-8.036h-2.688v-3.304h2.688v-4.088l4.088-.392v4.48h3.024v3.304h-3.024v7.252c0 .448.103.747.308.896s.504.224.896.224h1.82V33zm5.257 0V12.588h4.116v8.12h.168c.411-.99 1.046-1.736 1.904-2.24.859-.504 1.82-.756 2.884-.756 1.008 0 1.904.205 2.688.616.803.41 1.438 1.073 1.904 1.988.467.896.7 2.1.7 3.612V33h-4.116v-8.176c0-1.27-.224-2.212-.672-2.828s-1.166-.924-2.156-.924c-1.064 0-1.885.364-2.464 1.092-.56.71-.84 1.54-.84 2.492V33z" fill="#0A0D12"></path></g></svg></defs><use href="#svg476319983_3511"></use></svg>