<svg xmlns:xlink="http://www.w3.org/1999/xlink" xmlns="http://www.w3.org/2000/svg" viewBox="0 0 256 256" focusable="false" color="var(--token-fea11c44-032b-447a-9585-047b1a84dca3, rgb(49, 111, 246))" style="user-select: none; width: 100%; height: 100%; display: inline-block; fill: var(--token-fea11c44-032b-447a-9585-047b1a84dca3, rgb(49, 111, 246)); color: var(--token-fea11c44-032b-447a-9585-047b1a84dca3, rgb(49, 111, 246)); flex-shrink: 0;" width="256"  height="256" ><g color="var(--token-fea11c44-032b-447a-9585-047b1a84dca3, rgb(49, 111, 246))" weight="regular" fill="#316FF6"><path d="M128,24A104,104,0,1,0,232,128,104.11,104.11,0,0,0,128,24Zm8,191.63V152h24a8,8,0,0,0,0-16H136V112a16,16,0,0,1,16-16h16a8,8,0,0,0,0-16H152a32,32,0,0,0-32,32v24H96a8,8,0,0,0,0,16h24v63.63a88,88,0,1,1,16,0Z" fill="#316FF6"></path></g></svg>