<svg xmlns:xlink="http://www.w3.org/1999/xlink" xmlns="http://www.w3.org/2000/svg" viewBox="0 0 256 256" focusable="false" color="var(--token-aa49d30b-1153-48cc-b4b7-4a56b03c6b36, rgb(225, 48, 108))" style="user-select: none; width: 100%; height: 100%; display: inline-block; fill: var(--token-aa49d30b-1153-48cc-b4b7-4a56b03c6b36, rgb(225, 48, 108)); color: var(--token-aa49d30b-1153-48cc-b4b7-4a56b03c6b36, rgb(225, 48, 108)); flex-shrink: 0;" width="256"  height="256" ><g color="var(--token-aa49d30b-1153-48cc-b4b7-4a56b03c6b36, rgb(225, 48, 108))" weight="regular" fill="#E1306C"><path d="M128,80a48,48,0,1,0,48,48A48.05,48.05,0,0,0,128,80Zm0,80a32,32,0,1,1,32-32A32,32,0,0,1,128,160ZM176,24H80A56.06,56.06,0,0,0,24,80v96a56.06,56.06,0,0,0,56,56h96a56.06,56.06,0,0,0,56-56V80A56.06,56.06,0,0,0,176,24Zm40,152a40,40,0,0,1-40,40H80a40,40,0,0,1-40-40V80A40,40,0,0,1,80,40h96a40,40,0,0,1,40,40ZM192,76a12,12,0,1,1-12-12A12,12,0,0,1,192,76Z" fill="#E1306C"></path></g></svg>