<svg xmlns="http://www.w3.org/2000/svg" viewBox="0 0 256 256" focusable="false" color="var(--token-cb857597-1bd5-4f62-b602-ab590621a1c3, rgb(0, 125, 252))" style="user-select: none; width: 100%; height: 100%; display: inline-block; fill: var(--token-cb857597-1bd5-4f62-b602-ab590621a1c3, rgb(0, 125, 252)); color: var(--token-cb857597-1bd5-4f62-b602-ab590621a1c3, rgb(0, 125, 252)); flex-shrink: 0;"><g color="var(--token-cb857597-1bd5-4f62-b602-ab590621a1c3, rgb(0, 125, 252))" weight="regular" fill="#007DFC"><path d="M216,48V96a8,8,0,0,1-16,0V67.31l-50.34,50.35a8,8,0,0,1-11.32-11.32L188.69,56H160a8,8,0,0,1,0-16h48A8,8,0,0,1,216,48ZM106.34,138.34,56,188.69V160a8,8,0,0,0-16,0v48a8,8,0,0,0,8,8H96a8,8,0,0,0,0-16H67.31l50.35-50.34a8,8,0,0,0-11.32-11.32Z" fill="#007DFC"></path></g></svg>