<svg xmlns:xlink="http://www.w3.org/1999/xlink" xmlns="http://www.w3.org/2000/svg" style="width:100%;height:100%" viewBox="0 0 40 48" preserveAspectRatio="none" width="40" height="48"><defs><svg fill="none" height="48" width="40" id="svg-431863789_432"><path clip-rule="evenodd" d="M20 44c11.046 0 20-8.954 20-20S31.046 4 20 4 0 12.954 0 24s8.954 20 20 20zm6.24-30.683c.303-1.079-.744-1.717-1.7-1.036L11.193 21.79c-1.037.738-.874 2.21.245 2.21h3.515v-.027h6.85l-5.582 1.97-2.46 8.74c-.304 1.079.743 1.717 1.699 1.036l13.347-9.509c1.037-.738.874-2.21-.245-2.21h-5.33z" fill="#155EEF" fill-rule="evenodd"></path></svg></defs><use href="#svg-431863789_432"></use></svg>