<svg xmlns:xlink="http://www.w3.org/1999/xlink" xmlns="http://www.w3.org/2000/svg" style="width:100%;height:100%" viewBox="0 0 40 48" preserveAspectRatio="none" width="40" height="48"><defs><svg fill="none" height="48" width="40" id="svg-898974184_1572"><g clip-rule="evenodd" fill-rule="evenodd" fill="none"><path d="M4.291 28.602a2.3 2.3 0 0 1 0 3.266l-.046.047a2.332 2.332 0 0 1-3.285 0 2.3 2.3 0 0 1 0-3.266l.046-.047a2.332 2.332 0 0 1 3.285 0z" fill="#A4BCFD"></path><path d="M15.211 29.298a2.3 2.3 0 0 1-.006 3.266l-6.434 6.374c-.909.9-2.38.898-3.285-.006a2.3 2.3 0 0 1 .006-3.266l6.434-6.374c.909-.9 2.38-.897 3.285.006z" fill="#6172F3"></path><path d="M23.943 40.27a2.331 2.331 0 0 1 3.221-.64l.14.092a2.301 2.301 0 0 1 .644 3.203 2.331 2.331 0 0 1-3.221.64l-.14-.092a2.301 2.301 0 0 1-.644-3.202z" fill="#A4BCFD"></path><path d="M39.273 28.464a2.3 2.3 0 0 1 0 3.266l-3.16 3.14c-.906.902-2.377.902-3.284 0s-.907-2.364 0-3.265l3.159-3.141a2.332 2.332 0 0 1 3.285 0z" fill="#6172F3"></path><path d="M39.32 16.847a2.3 2.3 0 0 1 0 3.266l-23.345 23.21c-.907.902-2.378.902-3.285 0s-.907-2.364 0-3.266l23.345-23.21a2.332 2.332 0 0 1 3.285 0zm-4.415-7.136a2.3 2.3 0 0 1 0 3.266L21.479 26.326c-.907.902-2.378.902-3.285 0s-.907-2.364 0-3.266L31.62 9.71a2.332 2.332 0 0 1 3.285 0zm-7.086-4.527a2.3 2.3 0 0 1 .002 3.266L10.562 25.632a2.332 2.332 0 0 1-3.285.002 2.3 2.3 0 0 1-.002-3.266L24.534 5.186a2.332 2.332 0 0 1 3.285-.002z" fill="#444CE7"></path><path d="M10.728 10.684a2.3 2.3 0 0 1-.006 3.266l-6.76 6.698c-.908.9-2.379.897-3.284-.006a2.3 2.3 0 0 1 .005-3.266l6.76-6.698c.908-.9 2.38-.897 3.285.006z" fill="#6172F3"></path><path d="M14.868 4a2.316 2.316 0 0 1 2.323 2.31v.23c0 1.276-1.04 2.31-2.323 2.31a2.316 2.316 0 0 1-2.323-2.31v-.23c0-1.276 1.04-2.31 2.323-2.31z" fill="#A4BCFD"></path></g></svg></defs><use href="#svg-898974184_1572"></use></svg>