<svg xmlns:xlink="http://www.w3.org/1999/xlink" xmlns="http://www.w3.org/2000/svg" style="width:100%;height:100%" viewBox="0 0 40 48" preserveAspectRatio="none" width="40" height="48"><defs><svg fill="none" height="48" width="40" id="svg-1799035748_728"><path d="M17.623 4.985a3.361 3.361 0 0 1 4.754 0l4.754 4.753a3.362 3.362 0 0 1 0 4.754l-4.754 4.754a3.361 3.361 0 0 1-4.754 0l-4.754-4.754a3.362 3.362 0 0 1 0-4.754zM29.508 16.87a3.362 3.362 0 0 1 4.754 0l4.753 4.753a3.361 3.361 0 0 1 0 4.754l-4.753 4.754a3.362 3.362 0 0 1-4.754 0l-4.754-4.754a3.361 3.361 0 0 1 0-4.754zm-23.77 0a3.362 3.362 0 0 1 4.754 0l4.754 4.753a3.361 3.361 0 0 1 0 4.754l-4.754 4.754a3.362 3.362 0 0 1-4.754 0L.985 26.377a3.361 3.361 0 0 1 0-4.754zm11.885 11.884a3.361 3.361 0 0 1 4.754 0l4.754 4.754a3.362 3.362 0 0 1 0 4.754l-4.754 4.753a3.361 3.361 0 0 1-4.754 0l-4.754-4.753a3.362 3.362 0 0 1 0-4.754z" fill="#0A0D12"></path></svg></defs><use href="#svg-1799035748_728"></use></svg>