<svg xmlns:xlink="http://www.w3.org/1999/xlink" xmlns="http://www.w3.org/2000/svg" style="width:100%;height:100%" viewBox="0 0 47 48" preserveAspectRatio="none" width="47" height="48"><defs><svg fill="none" height="48" width="47" id="svg-1477140509_487"><path d="M24.97 7.033a8 8 0 0 0-11.313 0L2.343 18.347a8 8 0 0 0 0 11.314l11.314 11.313a8 8 0 0 0 11.314 0l5.398-5.398c-4.494-1.734-7.682-6.094-7.682-11.2 0-5.308 3.447-9.812 8.225-11.394a16.997 16.997 0 0 0-.285-.292z" fill="#875BF7"></path><path d="M30.37 35.58c1.339.517 2.795.8 4.316.8 6.628 0 12-5.373 12-12s-5.372-12-12-12c-1.318 0-2.587.212-3.773.605 5.962 6.268 5.867 16.184-.285 22.336z" fill="#EE46BC"></path></svg></defs><use href="#svg-1477140509_487"></use></svg>