<svg xmlns:xlink="http://www.w3.org/1999/xlink" xmlns="http://www.w3.org/2000/svg" style="width:100%;height:100%" viewBox="0 0 40 48" preserveAspectRatio="none" width="40" height="48"><defs><svg fill="none" height="48" width="40" id="svg1705017216_2972"><g fill="#155EEF"><path d="M23.454 34.719c-3.182-1.182-6.455-1.364-9.455-.546-2.09.546-4.09 1.637-5.909 3l-1.272 1.091-.364.364.818.727c.091 0 .091.091.182.182.182.182.364.273.636.455l.546.363.545-.454c.091-.091.273-.273.455-.364 1.636-1.364 3.454-2.273 5.363-2.727 2.455-.637 5.091-.546 7.728.454 2.181.818 6.636 1.818 12-.454l.181-.091.273-.273c0-.09.09-.09.182-.182.454-.545.909-1.09 1.272-1.727l1.819-2.818-2.91 1.636c-4.272 2.364-8.181 2.818-12.09 1.364zM11 24.901c2.454-.636 5.09-.545 7.727.455 2.909 1.09 10.363 2.636 18.727-4.91l1.818-1.818-.182-.454c-.09-.364-.273-.818-.454-1.273l-.455-1.272-.909.909c-.09.181-.273.272-.455.454-4 4.091-10.181 8.273-17.272 5.727-3.182-1.181-6.454-1.363-9.454-.545-2.91.818-5.455 2.363-7.818 4.545v-.09L.909 28.082c0 .09-.09.09-.182.182l-.272.272.09.364c.091.455.273.91.364 1.364l.546 1.454.909-1.182c.09-.181.272-.272.363-.454C4.637 28.356 7.273 25.9 11 24.9z" fill="#155EEF"></path><path d="M2.182 23.265c2.09-2.182 4.454-3.546 7-4.273 2.454-.636 5.09-.545 7.727.455 8.181 3 15.272-1.91 18.363-4.546l1.182-1.182.454-.363-.363-.546c-.273-.273-.455-.636-.727-1l-.546-.727-.636.636-.364.364c-3.818 3.636-9.727 7.364-16.454 4.818-3.182-1.182-6.455-1.364-9.455-.545-1.909.545-3.727 1.454-5.545 2.636L.91 20.537l-.454.455-.182.182v.272c-.091.637-.091 1.273-.182 1.819L0 25.537l1.545-1.636c.182-.182.364-.455.637-.636zM26.09 40.9c-.272-.09-.454-.181-.726-.272-3.182-1.182-6.455-1.364-9.455-.545-.636.181-1.272.363-1.909.636l-2.182 1-.545.273 1.818.636 1.636.545.273.091.273-.09c.273-.092.545-.273.818-.273.182 0 .364-.091.545-.182 2.182-.546 4.546-.546 7.091.272.273.091.455.182.728.273l.454.182.273-.09c.636-.183 1.363-.364 1.909-.637l2.545-.91L27 41.174c-.273-.09-.636-.181-.91-.272zM40 22.083l-1.364 1.364-.545.545c-3.727 3.545-9.727 7.363-16.454 4.818-3.182-1.182-6.455-1.364-9.455-.545-2.818.818-5.363 2.272-7.636 4.454l-1.182 1.273-.363.454.363.546c.273.363.455.636.637 1l.545.818.636-.818.364-.364c2.182-2.363 4.545-3.818 7.273-4.545 2.454-.637 5.09-.546 7.727.454 2.273.818 4.636 1.091 7 .818 4.181-.454 8.363-2.818 11.454-5.454.182-.182.364-.273.545-.455l.273-.272V25.9c0-.545.091-1.182.091-1.727z" fill="#155EEF"></path><path d="M5.454 13.72c.545-.273 1.182-.455 1.727-.637 2.455-.636 5.09-.545 7.727.455 1.727.636 3.455.909 5.364.909 3.818 0 7.636-1.364 11.181-4l1.818-1.455-.818-.636a4.036 4.036 0 0 0-1-.727l-.545-.364-.455.364c-.182.09-.272.272-.454.363-4.818 3.637-9.636 4.637-14.182 2.91C12.544 9.72 9.272 9.446 6 10.446c-.273.09-.545.182-.909.273l-.182.09-.272.273c0 .091-.091.091-.182.182-.364.546-.818 1-1.182 1.546l-1.727 2.636 2.818-1.455c.454 0 .818-.181 1.09-.272zm7.455-6.182.273.09c1.181.455 3 .91 5.272.91 2.364 0 4.636-.546 6.91-1.455L28.18 5.72l-1.909-.637c-.545-.182-1.09-.363-1.727-.454h-.273l-.272.09c-.273.091-.546.273-.819.364-2.727 1-5.454 1.182-8.09.455l-.818-.273-.273-.09-.273.09c-.545.182-1.09.364-1.636.636l-2.09.91 2.182.636c.181-.091.454 0 .727.09z" fill="#155EEF"></path></g></svg></defs><use href="#svg1705017216_2972"></use></svg>