<svg xmlns:xlink="http://www.w3.org/1999/xlink" xmlns="http://www.w3.org/2000/svg" style="width:100%;height:100%" viewBox="0 0 131 48" preserveAspectRatio="none" width="131" height="48"><defs><svg fill="none" height="48" width="131" id="svg-243381775_2542"><path d="M5.037 15.464c.751-2.801 3.63-5.68 6.43-6.43l17.463-4.68c2.8-.75 4.463.911 3.712 3.712l-4.68 17.462c-.75 2.8-3.63 5.68-6.43 6.43L4.07 36.638c-2.8.75-4.463-.912-3.712-3.713z" fill="#6938EF" opacity=".7"></path><path d="M12.036 22.464c.75-2.8 3.63-5.68 6.43-6.43l17.462-4.68c2.8-.75 4.463.912 3.712 3.713l-4.68 17.461c-.75 2.801-3.63 5.68-6.43 6.43l-17.462 4.68c-2.8.75-4.463-.911-3.712-3.712z" fill="#6938EF" opacity=".7"></path><path d="M54.563 13.776v15.147h8.802V33H50V13.776zM78.114 33h-4.24c-.215-.414-.332-.936-.35-1.566-.937 1.26-2.422 1.89-4.456 1.89-1.53 0-2.762-.378-3.698-1.134-.919-.756-1.378-1.8-1.378-3.132 0-2.592 1.819-4.041 5.455-4.347l2.186-.19c1.207-.125 1.81-.584 1.81-1.376 0-.936-.712-1.404-2.134-1.404-.863 0-1.475.135-1.835.405-.343.252-.55.729-.622 1.43h-4.184c.251-3.221 2.474-4.832 6.668-4.832 4.14 0 6.21 1.43 6.21 4.293v7.398c0 1.17.19 2.025.567 2.565zm-7.777-2.511c.955 0 1.71-.243 2.269-.73.558-.503.837-1.25.837-2.24v-1.026c-.252.27-.72.45-1.404.54l-1.728.189c-1.35.144-2.025.702-2.025 1.674 0 .486.18.873.54 1.16s.864.433 1.512.433zm16.773-9.342.729-2.08h4.347l-5.292 12.988-2.484 6.237h-4.05l2.349-5.778-5.346-13.446h4.536l.648 1.809c.576 1.71 1.314 4.077 2.214 7.1.99-2.79 1.773-5.066 2.349-6.83zm18.936 5.292v.837H95.732c.144.954.495 1.683 1.053 2.187s1.27.756 2.133.756c1.368 0 2.304-.522 2.808-1.566h3.996a5.847 5.847 0 0 1-2.403 3.429c-1.224.828-2.691 1.242-4.4 1.242-2.16 0-3.907-.666-5.239-1.998s-1.998-3.096-1.998-5.292c0-2.214.657-3.978 1.971-5.292 1.296-1.332 3.033-1.998 5.211-1.998 2.16 0 3.906.693 5.238 2.079 1.296 1.404 1.944 3.276 1.944 5.616zm-7.236-4.59c-1.728 0-2.745.918-3.05 2.754h6.155c-.144-.864-.486-1.54-1.026-2.025s-1.233-.73-2.079-.73zm16.74-2.997c.072 0 .378.018.918.054v3.834h-1.08c-2.466 0-3.699 1.26-3.699 3.78V33h-4.212V19.068h4.104v2.592c.648-1.872 1.971-2.808 3.969-2.808zm7.819 14.553c-2.196 0-3.834-.378-4.914-1.134-1.062-.774-1.656-2.007-1.782-3.7h4.104c.072.739.306 1.26.702 1.567.414.306 1.071.459 1.971.459 1.566 0 2.349-.45 2.349-1.35 0-.432-.171-.756-.513-.972-.342-.234-.972-.423-1.89-.567l-1.809-.297c-3.132-.486-4.698-1.908-4.698-4.266 0-1.404.54-2.484 1.62-3.24 1.08-.774 2.628-1.161 4.644-1.161 4.158 0 6.318 1.593 6.48 4.779h-3.915c-.018-1.314-.873-1.971-2.565-1.971-1.422 0-2.133.44-2.133 1.323 0 .396.162.702.486.918s.837.378 1.539.486l2.079.297c1.674.252 2.907.729 3.699 1.43s1.188 1.666 1.188 2.89c0 1.44-.585 2.556-1.755 3.348-1.152.774-2.781 1.16-4.887 1.16z" fill="#0A0D12"></path></svg></defs><use href="#svg-243381775_2542"></use></svg>