<svg xmlns:xlink="http://www.w3.org/1999/xlink" xmlns="http://www.w3.org/2000/svg" style="width:100%;height:100%" viewBox="0 0 163 48" preserveAspectRatio="none" width="163" height="48"><defs><svg fill="none" height="48" width="163" id="svg-1514679192_3448"><g fill="#0A0D12"><path clip-rule="evenodd" d="M19.742 4.076a3.672 3.672 0 0 0-1.484 0c-.567.116-1.072.4-1.475.625l-.11.06-13.632 7.575-.117.064c-.426.235-.96.53-1.372.976a3.686 3.686 0 0 0-.79 1.34c-.19.577-.187 1.188-.185 1.674v15.22c-.002.486-.004 1.097.186 1.673.164.498.433.956.789 1.341.411.446.946.741 1.372.976l.117.064 13.633 7.574.11.061c.402.226.907.509 1.474.625.49.101.994.101 1.484 0 .566-.116 1.072-.4 1.474-.625l.11-.06 13.633-7.575.05-.028.066-.036c.426-.235.961-.53 1.373-.976.355-.385.624-.843.789-1.34.19-.577.188-1.188.186-1.674V16.39c.002-.486.004-1.097-.186-1.673a3.686 3.686 0 0 0-.79-1.341c-.41-.447-.946-.741-1.372-.976h-.001l-.115-.064-13.633-7.574-.11-.061c-.402-.226-.908-.509-1.474-.625zm-1.279 3.907c.28-.155.422-.234.528-.285L19 7.694l.009.004c.106.051.248.13.528.285l12.25 6.806L19 21.892 6.213 14.788zM4.261 17.92l12.896 7.164v14.208L4.83 32.443a12.264 12.264 0 0 1-.55-.315l-.01-.006v-.01a12.217 12.217 0 0 1-.009-.635z" fill-rule="evenodd" fill="#0A0D12"></path><path d="M62.64 33H48v-3.42h2.1V16.92H48V13.5h8.85v3.42h-2.73v12.66h5.1l.6-3.78 3.42.3zm2.929-15.93v-4.02h3.87v4.02zM71.388 33h-7.47v-2.91h1.8v-7.68h-1.95v-2.94h5.82v10.62h1.8zm16.585-10.59h-1.8v9.9c0 2.16-.61 3.92-1.83 5.28-1.22 1.38-3.1 2.07-5.64 2.07-1.4 0-2.74-.29-4.02-.87-1.28-.56-2.21-1.62-2.79-3.18l2.97-1.68c.96 1.78 2.25 2.67 3.87 2.67 1.04 0 1.89-.38 2.55-1.14.68-.74 1.02-1.79 1.02-3.15v-1.77c-.36.68-.89 1.26-1.59 1.74s-1.65.72-2.85.72c-1.58 0-2.96-.55-4.14-1.65s-1.77-2.72-1.77-4.86c0-2.02.54-3.74 1.62-5.16s2.57-2.13 4.47-2.13c1.06 0 1.94.22 2.64.66s1.24 1.01 1.62 1.71v-2.1h5.67zm-5.67 3.75v-.33c0-1.12-.29-1.99-.87-2.61-.56-.64-1.28-.96-2.16-.96-.86 0-1.58.32-2.16.96-.56.64-.84 1.65-.84 3.03 0 1.3.25 2.24.75 2.82.52.58 1.19.87 2.01.87 1.06 0 1.87-.38 2.43-1.14s.84-1.64.84-2.64zM104.814 33h-7.47v-2.91h1.8v-4.71c0-1.16-.21-1.99-.63-2.49-.4-.5-.98-.75-1.74-.75-.88 0-1.57.27-2.07.81-.48.54-.74 1.25-.78 2.13v5.01h1.8V33h-7.47v-2.91h1.8V15.3h-1.8v-2.94h5.67v9.18c.9-1.56 2.35-2.34 4.35-2.34 1.28 0 2.39.38 3.33 1.14s1.41 1.94 1.41 3.54v6.21h1.8zm11.972-4.2c-.2 1.56-.74 2.7-1.62 3.42s-2.02 1.08-3.42 1.08c-1.5 0-2.72-.37-3.66-1.11-.92-.76-1.38-1.84-1.38-3.24v-6.72h-1.92v-2.76h1.92v-4.11h3.87v4.11h4.86v2.76h-4.86v6.06c0 1.18.54 1.77 1.62 1.77.24 0 .56-.1.96-.3.42-.22.69-.83.81-1.83zm15.073-2.88c0 2-.53 3.73-1.59 5.19-1.04 1.46-2.58 2.19-4.62 2.19-2.06 0-3.51-.78-4.35-2.34-.04.34-.09.68-.15 1.02-.04.34-.09.68-.15 1.02h-3.87c.14-.7.26-1.4.36-2.1s.15-1.39.15-2.07V15.3h-1.8v-2.94h5.67v9.69c.36-.78.9-1.45 1.62-2.01.74-.56 1.72-.84 2.94-.84 1.7 0 3.09.59 4.17 1.77s1.62 2.83 1.62 4.95zm-4.02.33c0-1.3-.28-2.29-.84-2.97s-1.3-1.02-2.22-1.02c-1.04 0-1.85.38-2.43 1.14-.56.76-.84 1.64-.84 2.64v.33c0 1.1.27 2.03.81 2.79.56.74 1.35 1.11 2.37 1.11.88 0 1.62-.32 2.22-.96.62-.66.93-1.68.93-3.06zm19.133 0c0 2.14-.7 3.85-2.1 5.13s-3.18 1.92-5.34 1.92c-2.08 0-3.78-.6-5.1-1.8-1.3-1.22-1.95-2.92-1.95-5.1 0-1.98.6-3.68 1.8-5.1s3.02-2.13 5.46-2.13 4.25.71 5.43 2.13c1.2 1.4 1.8 3.05 1.8 4.95zm-3.99-.12c0-1.38-.32-2.39-.96-3.03s-1.42-.96-2.34-.96c-1 0-1.79.36-2.37 1.08-.56.7-.84 1.69-.84 2.97 0 1.16.26 2.14.78 2.94.54.8 1.34 1.2 2.4 1.2 1 0 1.8-.37 2.4-1.11.62-.76.93-1.79.93-3.09zM162.353 33h-6.81v-2.91h.99l-1.98-2.13-1.95 2.13h.87V33h-6.33v-2.91h1.86l3.72-3.75-4.08-3.96h-1.35v-2.91h6.84v2.91h-.93l1.83 2.01 1.95-2.01h-.9v-2.91h5.88v2.91h-1.35l-3.69 3.54 4.11 4.17h1.32z" fill="#0A0D12"></path></g></svg></defs><use href="#svg-1514679192_3448"></use></svg>