<svg xmlns:xlink="http://www.w3.org/1999/xlink" xmlns="http://www.w3.org/2000/svg" style="width:100%;height:100%" viewBox="0 0 152 48" preserveAspectRatio="none" width="152" height="48"><defs><svg fill="none" height="48" width="152" id="svg-1442654997_3491"><path d="M10 24c0-5.523 4.477-10 10-10s10 4.477 10 10h10c0-11.046-8.954-20-20-20S0 12.954 0 24s8.954 20 20 20V34c-5.523 0-10-4.477-10-10z" fill="#7839EE"></path><path d="M20 24h10v10H20z" fill="#7839EE" opacity=".5"></path><path d="M37.324 34H30v7.324A20.098 20.098 0 0 0 37.324 34z" fill="#7839EE"></path><g fill="#0A0D12"><path d="M87.198 17.6c-.75 0-1.366-.217-1.85-.65-.466-.45-.7-1-.7-1.65 0-.667.234-1.217.7-1.65.484-.45 1.1-.675 1.85-.675.734 0 1.334.225 1.8.675.484.433.725.983.725 1.65 0 .65-.241 1.2-.725 1.65-.466.433-1.066.65-1.8.65zm2.125 1.45V33h-4.275V19.05z" fill="#0A0D12"></path><path clip-rule="evenodd" d="M56.8 33.121a9.082 9.082 0 0 1-3.5-1.096 8.744 8.744 0 0 1-3.276-3.2c-.8-1.383-1.2-2.933-1.2-4.65s.4-3.258 1.2-4.625a8.744 8.744 0 0 1 3.275-3.2c1.384-.767 2.9-1.15 4.55-1.15s3.159.383 4.525 1.15a8.33 8.33 0 0 1 3.25 3.2c.8 1.367 1.2 2.908 1.2 4.625s-.4 3.267-1.2 4.65a8.558 8.558 0 0 1-3.25 3.2 8.847 8.847 0 0 1-2.656.975c.063.436.199.79.407 1.064.299.41.7.69 1.204.84a5.386 5.386 0 0 0 1.708.252c.803 0 1.475-.084 2.016-.252.56-.168 1.017-.402 1.372-.7l.728 3.332c-.485.373-1.11.653-1.876.84a8.723 8.723 0 0 1-2.268.308c-1.232 0-2.315-.205-3.248-.616-.933-.41-1.661-1.008-2.184-1.792-.523-.784-.784-1.755-.784-2.912 0-.08.002-.16.006-.242zm4.4-5.246c-.834.933-1.95 1.4-3.35 1.4-1.417 0-2.55-.458-3.4-1.375-.834-.933-1.25-2.175-1.25-3.725 0-1.567.416-2.808 1.25-3.725.85-.917 1.983-1.375 3.4-1.375 1.4 0 2.516.467 3.35 1.4.85.917 1.274 2.15 1.274 3.7 0 1.533-.425 2.767-1.275 3.7z" fill-rule="evenodd" fill="#0A0D12"></path><path d="M82.478 33V19.05h-4.275v7.575c0 .933-.242 1.658-.726 2.175-.483.517-1.141.775-1.974.775-.817 0-1.467-.258-1.95-.775-.484-.517-.725-1.242-.725-2.175V19.05h-4.25v8.15c0 1.217.225 2.275.675 3.175s1.083 1.592 1.9 2.075c.816.467 1.758.7 2.825.7.9 0 1.716-.183 2.45-.55.75-.383 1.341-.883 1.775-1.5V33zm15.018-3.875L100.171 33h4.8l-4.8-6.925 4.675-7.025h-4.625l-2.25 3.85-2.675-3.85h-4.8l4.725 6.825-4.6 7.125h4.625z" fill="#0A0D12"></path><path clip-rule="evenodd" d="M112.469 33.2c-1.367 0-2.6-.292-3.7-.875a6.507 6.507 0 0 1-2.575-2.5c-.617-1.083-.925-2.35-.925-3.8 0-1.433.316-2.692.95-3.775.633-1.1 1.5-1.942 2.6-2.525s2.333-.875 3.7-.875c1.366 0 2.6.292 3.7.875s1.966 1.425 2.6 2.525c.633 1.083.95 2.342.95 3.775s-.325 2.7-.975 3.8a6.437 6.437 0 0 1-2.625 2.5c-1.1.583-2.334.875-3.7.875zm0-3.7c.816 0 1.508-.3 2.075-.9.583-.6.875-1.458.875-2.575s-.284-1.975-.85-2.575c-.55-.6-1.234-.9-2.05-.9-.834 0-1.525.3-2.075.9-.55.583-.825 1.442-.825 2.575 0 1.117.266 1.975.8 2.575.55.6 1.233.9 2.05.9z" fill-rule="evenodd" fill="#0A0D12"></path><path d="M129.312 33v-3.625h-1.525c-.467 0-.8-.092-1-.275s-.3-.483-.3-.9v-5.6h2.8v-3.55h-2.8v-3.4h-4.275v3.4h-1.7v3.55h1.7v5.55c0 1.717.433 2.958 1.3 3.725.866.75 2.075 1.125 3.625 1.125zm4.031-15.4c-.75 0-1.367-.217-1.85-.65-.467-.45-.7-1-.7-1.65 0-.667.233-1.217.7-1.65.483-.45 1.1-.675 1.85-.675.733 0 1.333.225 1.8.675.483.433.725.983.725 1.65 0 .65-.242 1.2-.725 1.65-.467.433-1.067.65-1.8.65zm2.125 15.4h-4.275V19.05h4.275zm2.623-10.775c-.584 1.083-.875 2.35-.875 3.8s.291 2.717.875 3.8a6.268 6.268 0 0 0 2.475 2.5c1.066.583 2.283.875 3.65.875 1.733 0 3.191-.467 4.375-1.4 1.183-.933 1.958-2.217 2.325-3.85h-4.55c-.384 1.067-1.125 1.6-2.225 1.6-.784 0-1.409-.3-1.875-.9-.467-.617-.7-1.492-.7-2.625s.233-2 .7-2.6c.466-.617 1.091-.925 1.875-.925 1.1 0 1.841.533 2.225 1.6h4.55c-.367-1.667-1.142-2.958-2.325-3.875-1.167-.917-2.625-1.375-4.375-1.375-1.367 0-2.584.292-3.65.875a6.268 6.268 0 0 0-2.475 2.5z" fill="#0A0D12"></path></g></svg></defs><use href="#svg-1442654997_3491"></use></svg>