<svg xmlns:xlink="http://www.w3.org/1999/xlink" xmlns="http://www.w3.org/2000/svg" style="width:100%;height:100%" viewBox="0 0 160 48" preserveAspectRatio="none" width="160" height="48"><defs><svg fill="none" height="48" width="160" id="svg-1101104997_3707"><path clip-rule="evenodd" d="M20 41.136c1.87 0 3.669-.299 5.353-.852-1.718-.29-3.527-.872-5.352-1.73-1.825.858-3.635 1.441-5.353 1.73 1.684.553 3.483.852 5.352.852zM3.717 29.356c.29-1.718.872-3.53 1.73-5.355-.858-1.826-1.441-3.636-1.73-5.355A17.12 17.12 0 0 0 2.864 24c0 1.87.3 3.67.853 5.356zm3.604-2.01c-.16.468-.296.93-.41 1.382-.887 3.551-.236 5.988 1.07 7.293 1.305 1.306 3.742 1.957 7.293 1.069.452-.113.914-.25 1.382-.41a32.248 32.248 0 0 1-5.14-4.195 32.248 32.248 0 0 1-4.195-5.139zm12.68 7.845c-2.143-1.173-4.324-2.786-6.365-4.827-2.04-2.04-3.653-4.22-4.825-6.363 1.172-2.143 2.786-4.324 4.826-6.364 2.04-2.04 4.222-3.654 6.364-4.827 2.143 1.173 4.323 2.786 6.363 4.826 2.041 2.04 3.655 4.222 4.827 6.365-1.172 2.143-2.785 4.323-4.826 6.363-2.04 2.04-4.221 3.655-6.364 4.827zm12.68-7.845a32.245 32.245 0 0 1-4.194 5.14 32.247 32.247 0 0 1-5.14 4.194c.468.16.929.297 1.381.41 3.551.887 5.988.236 7.293-1.07 1.306-1.304 1.957-3.741 1.069-7.292-.113-.452-.25-.914-.41-1.382zm1.874-3.345c.858-1.824 1.44-3.634 1.73-5.351a17.12 17.12 0 0 1 .851 5.35c0 1.869-.299 3.668-.852 5.352-.29-1.717-.872-3.526-1.729-5.35zm-9.2-16.284c-1.718.289-3.529.872-5.354 1.73-1.825-.858-3.636-1.442-5.354-1.73A17.12 17.12 0 0 1 20 6.863c1.87 0 3.67.3 5.354.853zm8.703 2.057A19.936 19.936 0 0 0 20 4C8.954 4 0 12.954 0 24s8.954 20 20 20a19.936 19.936 0 0 0 14.211-5.927A19.937 19.937 0 0 0 40 24a19.936 19.936 0 0 0-5.942-14.226zm-17.402 1.547c-.468-.16-.93-.297-1.383-.41-3.551-.888-5.988-.237-7.293 1.068s-1.957 3.743-1.07 7.294c.114.452.25.914.411 1.383a32.245 32.245 0 0 1 4.195-5.14 32.243 32.243 0 0 1 5.14-4.195zm16.025 9.335a32.253 32.253 0 0 0-4.195-5.141 32.25 32.25 0 0 0-5.14-4.194c.469-.16.93-.297 1.383-.41 3.55-.888 5.988-.237 7.293 1.069 1.305 1.305 1.957 3.742 1.069 7.293-.113.453-.25.914-.41 1.383z" fill="#6927DA" fill-rule="evenodd"></path><path d="M54.725 19.365c0 3.915 10.8.594 10.8 8.1 0 3.78-3.132 5.967-7.425 5.967-4.347 0-7.452-1.998-8.1-6.183h4.563c.351 1.81 1.62 2.808 3.564 2.808s2.97-.783 2.97-2.052c0-4.104-10.827-.972-10.827-8.235 0-3.078 2.565-5.562 7.074-5.562 3.807 0 7.101 1.81 7.668 6.048h-4.617c-.378-1.809-1.431-2.673-3.213-2.673-1.512 0-2.457.702-2.457 1.782zm16.521 19.602h-4.13V18.474h4.13v1.512c.892-1.269 2.134-1.97 3.646-1.97 3.752 0 6.101 2.942 6.101 7.694 0 4.941-2.402 7.722-6.101 7.722-1.54 0-2.782-.648-3.646-1.89zm2.782-17.604c-1.837 0-2.782 1.54-2.782 4.347s.973 4.374 2.782 4.374c1.781 0 2.726-1.539 2.726-4.374 0-2.808-.971-4.347-2.726-4.347zM82.633 33V13.56h4.131v6.831c.945-1.62 2.43-2.376 4.212-2.376 2.781 0 4.86 1.701 4.86 5.292V33h-4.13v-8.856c0-1.836-.73-2.78-2.242-2.78-1.647 0-2.7 1.43-2.7 3.293V33zm29.154-4.779c-.756 3.348-3.456 5.211-7.02 5.211-4.509 0-7.29-2.916-7.29-7.695 0-4.94 2.808-7.722 7.128-7.722 4.347 0 7.074 2.89 7.074 7.641v.918h-9.99c.216 2.322 1.296 3.564 3.078 3.564 1.35 0 2.268-.594 2.7-1.917zm-7.182-6.912c-1.539 0-2.511 1-2.835 2.89h5.643c-.324-1.89-1.296-2.89-2.808-2.89zm8.8 11.691V18.474h4.131V20.5c.918-1.728 2.322-2.484 3.807-2.484.594 0 1.134.162 1.431.46v3.482a7.39 7.39 0 0 0-1.647-.162c-2.484 0-3.591 1.404-3.591 3.7V33zm19.391-6.183v-8.343h4.131V33h-4.131v-1.944c-.945 1.62-2.376 2.376-4.131 2.376-2.754 0-4.779-1.674-4.779-5.292v-9.666h4.131v8.83c0 1.862.702 2.78 2.16 2.78 1.593 0 2.619-1.404 2.619-3.267zM139.193 33V13.56h4.131V33zm20.057-4.779c-.756 3.348-3.456 5.211-7.02 5.211-4.509 0-7.29-2.916-7.29-7.695 0-4.94 2.808-7.722 7.128-7.722 4.347 0 7.074 2.89 7.074 7.641v.918h-9.99c.216 2.322 1.296 3.564 3.078 3.564 1.35 0 2.268-.594 2.7-1.917zm-7.182-6.912c-1.539 0-2.511 1-2.835 2.89h5.643c-.324-1.89-1.296-2.89-2.808-2.89z" fill="#0A0D12"></path></svg></defs><use href="#svg-1101104997_3707"></use></svg>