<svg xmlns:xlink="http://www.w3.org/1999/xlink" xmlns="http://www.w3.org/2000/svg" viewBox="0 0 256 256" focusable="false" color="var(--token-bd6fddaa-3751-40c0-9f12-5c406a835432, rgb(0, 0, 0))" style="user-select: none; width: 100%; height: 100%; display: inline-block; fill: var(--token-bd6fddaa-3751-40c0-9f12-5c406a835432, rgb(0, 0, 0)); color: var(--token-bd6fddaa-3751-40c0-9f12-5c406a835432, rgb(0, 0, 0)); flex-shrink: 0;" width="256"  height="256" ><g color="var(--token-bd6fddaa-3751-40c0-9f12-5c406a835432, rgb(0, 0, 0))" weight="regular"><path d="M214.75,211.71l-62.6-98.38,61.77-67.95a8,8,0,0,0-11.84-10.76L143.24,99.34,102.75,35.71A8,8,0,0,0,96,32H48a8,8,0,0,0-6.75,12.3l62.6,98.37-61.77,68a8,8,0,1,0,11.84,10.76l58.84-64.72,40.49,63.63A8,8,0,0,0,160,224h48a8,8,0,0,0,6.75-12.29ZM164.39,208,62.57,48h29L193.43,208Z"></path></g></svg>